<?xml version="1.0" encoding="UTF-8"?>
<svg id="Livello_1" xmlns="http://www.w3.org/2000/svg" version="1.1" viewBox="0 0 99.66 136.51">
  <!-- Generator: Adobe Illustrator 30.5.1, SVG Export Plug-In . SVG Version: 2.1.4 Build 3)  -->
  <defs>
    <style>
      .st0 {
        fill: #fff;
      }
    </style>
  </defs>
  <path class="st0" d="M99.6,70.33c-.15-2.21-.04-4.34-.31-6.53-.33-2.74-3.29-4.38-5.95-3.92.74-7.84.07-15.49-1.3-23.22-2.91-14.38-11.41-25.42-24.66-31.66-4.64-2.18-9.39-3.68-14.46-4.49l-1.17-.27-6.97-.24c-10.23.53-20.04,4.09-27.96,10.81C8.37,17.99,2.91,27.92,1.58,38.97l-.2,1.64-.26,3.98.17,1.65c.15,6.19,1.28,12.11,2.73,18.1-2.23.3-3.08,1.56-3.9,3.37l-.12,2.57c1.34,4.61,1.95,9.38,2.9,14.2l1.06,5.3-.02-.02,1.52,3.71c.47,1.97.58,3.95.9,5.95.77,4.85,2.74,9.25,5.84,13,2.43,2.96,4.73,5.79,7.77,8.16l8.89,6.92c1.83,6.34,7.73,7.88,13.98,8.67,5,.63,10.41.36,15.41-.59,5.33-1.01,10.05-3.37,14.47-6.43,4.92-3.41,9.02-8.73,10.08-14.68,6.12-6.03,8.32-13.17,8.89-21.69.95-.92,1.68-1.98,2.11-3.35.36-1.15,2.95-3.23,3.45-5.41l2.22-9.6c.31-1.26.14-2.82.13-4.09ZM1.89,69.94v-.25h.01s.56-3.51,3.01-2.91c0,0,.51,8.11.77,11.62.27,3.52-3.79-8.46-3.79-8.46ZM62.84,130.37h-.01c-7.78,2.52-19.91,3.27-27.1-.19-1.99-.96-2.98-2.67-3.23-4.8-.53-4.38-.88-8.67-.99-13.12-.1-3.57.18-7.03.35-10.65.07-1.55.71-3.29,1.87-4.3,3.33-2.9,6.87-5.27,10.81-7.35,1.33-.71,3.17,1.64,5.29.19.45-.31,1.68-.82,2.14-.56l6.06,3.53c2.3,1.33,4.42,2.91,6.41,4.63,1.39,1.18,1.75,3.56,1.39,5.17l-2.33-3.4c-2.27-3.32-5.35-5.88-9.04-7.61-1.67-.77-3.48-.67-5.13.22-2.16,1.15-3.19-2.18-7.58.47-3.84,2.32-6.73,5.42-8.55,9.54-.48,1.1-.81,2-.31,3.23l.57,1.35,1.24-1.56c4.39,1.08,7.41-2.33,11.62-.69,2.1.81,4.31.6,6.45-.11,1.41-.46,2.72-.48,4.14-.19,2.34.47,4.61.48,6.93-.32l2,.82c-.03-.44-.07-.91.06-1.46l.73,4.21.2,4.15-5.26.98c-1.07.2-1.92,1.06-2.51,2.07l-3.2-1.28c.86-.56,1.35-1.48,1.42-2.57,1.78-1.79,2.95-2.85,3.37-5.71-2.57.43-4.92,2.51-5.84,2.6l-7.83.79c-1.29.13-2.89-.37-4.09-.75l-5.97-1.88,6.06,7.37.97.93-3.02,1.48-2.24-1.87c-1.26-1.07-3.21-.67-4.4.27l-1.39,1.12,3.64.84c2.01,2.6,3.79,3.71,6.84,2.16,1.81-.91,3.51-1.04,5.44-.47,2.54.76,5.33-1.09,7.07-.46l2.83,1.02c1.28.44,2.44-.23,3.06-1.32.47-.85,1.39-1.59,2.3-1.84,1.53-.43,2.07-1.35,2.78-2.91l.36,12.98c.07,2.42-2,4.49-4.38,5.25ZM60.77,101.53c-4.24-.32-6.8-4.19-10.84-1.92-1.91,1.09-4.03-1.87-8.24,1.01-1.59,1.11-3.19,1.89-5.05,2.06,1.95-2.9,4.14-5.11,6.84-6.95.88-.6,1.81-.66,2.77-.18,2.78,1.41,3.97-.43,6.2-.55,3.35,1.43,6.06,3.56,8.32,6.53ZM89.14,61.24c-1.94-8.01-3.42-13.24-8.34-19.71-.7-.93-.82-2.22-1.01-3.35-.31-1.78-.78-3.33-1.32-5.02l-1.02,3.39c-.85,2.77-.11,5.64,1.52,8,1.98,2.85,3.5,5.77,4.51,9.13,2.53,8.39,3.92,16.89,4.25,25.67.2,5.5.18,10.8-.44,16.27-.76,6.87-3.74,12.98-8.44,17.9-2.4,2.51-4.71,4.7-7.4,7.08l-.33-9.06-.8-10.64c-.52-2.97-1.85-5.88-4.45-7.55l-7.71-4.87c2.79-1,4.32-3.29,4.55-6.1.25-3.05-1.04-5.91-3.73-7.46l.15-3.53c.66.38,1.52,1.02,2.14,1.18l4.04,1c-2.68-2.87-5.57-5.19-7.69-8.65,4.8,3.38,10.17,5,14.97,1.89l.92-.7s.02-.01.02-.02c.71-.48,1.24-.9,1.66-1.26l1.31-1-.44.1c.6-.79.32-1.08.32-1.08l-1.02-3.39c-1.21-4.05-8.96-6.19-13.53-5.13-2.98.64-5.42,2.36-6.73,5.11l-.26,1.41-1.34-2.53c-3.2,4.33,1.24,7.7,2.58,10.54l2.75,5.82-2.8-1.8,1.21,3.73c.43,1.33,3.55,4.1,1.4,7.8-.09-1.7-1.1-2.96-2.72-3.29-1.3-.25-2.83-.15-4.17.12l-2.27,1.92c-1.34,1.12-2.97,1-4.3-.02-1.78-1.39-4.03-1.91-6.08-1.04-1.28.55-1.92,1.47-2.11,3.02-1.06-1.69-.8-3.83.35-5.41l2.17-2.98,1.44,3.17,2.65-7.57c.66-1.89-1.64-4.4.62-8.85.99-1.96-.19-4.32.58-5.62l1.56-2.67-2.85.92c-3.06,1-1.58,4.27-2.87,6.72l-.76-2.51-.98,1.44c-2.38-4.31-6.92-6.56-11.82-5.97-3.52.42-6.75,2-8.62,5.03l-1.62,2.64c-.15.15-.25.3-.26.43-.13,1.3.79,2.07,2.24,3.17.85.84,1.69,1.68,2.69,2.32,4.27,2.72,10.08.53,14.29-2.41-1.34,2.35-4.5,4.83-4.37,6.18.04.4.53.92,1.07,1.41,2.91-1.87,5.38-4.22,7.08-7.27l.88,4.61c-.52-.53-.62-1.06-.81-1.77-1.34,1.92-2.17,4.26-3.83,5.98-2.62,2.75-3.62,6.56-1.69,9.99.89,1.61,2.43,2.63,4.43,2.74-3.63,2.33-9.15,5.49-10.17,9.47-2.08,8.07-1.15,15.95-.43,24.3-2.18-1.76-4.23-3.26-6.01-5.2l-5.92-6.47c-4.88-5.36-6.48-14.5-6.53-21.77l-.11-20.35c-.03-5.08.06-9.91.39-14.98.29-4.5,3.59-7.63,3.11-12.51-.41-4.15-.48-8.77,1.63-12.58,1.34-2.42,4.43-3.79,6.9-4.81,3.79-1.55,7.79-2,11.8-1.45l9,1.25c3.68.51,7.39.36,11.07-.35l11.68-2.25-4.83-1.2c-1.79-.44-3.82-.35-5.66-.07-5.08.76-9.95.79-15.07.31-4.3-.4-8.41-.54-12.7-.31-4.75.27-9.23,1.79-13.02,4.6-3.64,2.69-4.97,9.58-4.86,14.18l.13,5.8c-1.13,2.67-1.94,5.2-2.09,8.12-.09,1.57-.24,3.07-.53,4.7-.85-4.39-1.25-8.63-1.15-13.21.24-11.81,5.31-22.93,14.38-30.51l-.02-.03h0c8.15-6.82,18.57-10.32,29.22-9.45,9.23.75,17.85,4.28,25.03,10,9.29,7.4,13.18,17.37,14.79,28.88.8,5.77,1.9,12.84.55,18.29ZM92.56,83.01l-1.26-.46c-.02-2.94-.42-5.5-1.18-8.38l2.44-5h0c-.09,4.88,2.42,9.69,0,13.84ZM95.82,71.42l-1.12-4.6c.22-.29.56-.55,1.12-.88v5.48Z"/>
  <path class="st0" d="M72.29,36.68l-12.57-3.61c-2.42-.69-5.04-.42-7.51-.02h.01c-5.22.84-10.22,1.09-15.51.75-2.04-.13-4.27-.03-6.09.86l-10.89,5.31,11.04-1.26c3.83-.44,7.46-.36,11.46.06,5.51.58,10.23-1.34,16.1-1.56l13.96-.53Z"/>
  <path class="st0" d="M59.43,45.57h-.01c-5.08.65-8.48,5.52-7.18,7.45.29.43.98.77,1.62.93,2-2.04,4.59-2.86,7.39-2.97,3.04-.12,5.87.15,8.78,1.11,4.95.81,7.14,2.87,11.15,5.66-.52-3.62-1.92-7.02-4.66-9.59-4.28-4.01-11.26-3.33-17.09-2.59Z"/>
  <path class="st0" d="M32.69,46.59h0c-3.79-.76-7.54-.8-11.31.04-5.71,1.17-9.53,6.16-9.34,12-.03.11-.12.64,0,.6l.53-.19c1.29-.46,2.3-1.08,2.76-2.4,2.53-7.19,14.83-5.71,21.67-1.88.41.23,1.47.02,1.8-.26,1.74-1.44-.81-6.83-6.11-7.91Z"/>
</svg>